<svg width="35" height="35" viewBox="0 0 35 35" fill="none" xmlns="http://www.w3.org/2000/svg">
<path d="M17.5 12.7605C16.243 12.7605 15.0375 13.2598 14.1486 14.1487C13.2598 15.0375 12.7604 16.2431 12.7604 17.5001C12.7604 18.7571 13.2598 19.9626 14.1486 20.8515C15.0375 21.7403 16.243 22.2397 17.5 22.2397C18.757 22.2397 19.9625 21.7403 20.8514 20.8515C21.7402 19.9626 22.2396 18.7571 22.2396 17.5001C22.2396 16.2431 21.7402 15.0375 20.8514 14.1487C19.9625 13.2598 18.757 12.7605 17.5 12.7605Z" fill="white" fill-opacity="0.7"/>
<path fill-rule="evenodd" clip-rule="evenodd" d="M9.87292 4.49466C14.9421 3.93277 20.0579 3.93277 25.1271 4.49466C27.8965 4.80383 30.1292 6.98404 30.4544 9.76362C31.0555 14.9037 31.0555 20.0964 30.4544 25.2365C30.1292 28.0161 27.8965 30.1963 25.1285 30.507C20.0589 31.069 14.9426 31.069 9.87292 30.507C7.10354 30.1963 4.87083 28.0161 4.54563 25.238C3.9444 20.0974 3.9444 14.9042 4.54563 9.76362C4.87083 6.98404 7.10354 4.80383 9.87292 4.49466ZM24.7917 8.75008C24.4049 8.75008 24.034 8.90373 23.7605 9.17722C23.487 9.45071 23.3333 9.82164 23.3333 10.2084C23.3333 10.5952 23.487 10.9661 23.7605 11.2396C24.034 11.5131 24.4049 11.6667 24.7917 11.6667C25.1784 11.6667 25.5494 11.5131 25.8229 11.2396C26.0964 10.9661 26.25 10.5952 26.25 10.2084C26.25 9.82164 26.0964 9.45071 25.8229 9.17722C25.5494 8.90373 25.1784 8.75008 24.7917 8.75008ZM10.5729 17.5001C10.5729 15.6629 11.3027 13.901 12.6018 12.6019C13.9009 11.3028 15.6628 10.573 17.5 10.573C19.3372 10.573 21.0991 11.3028 22.3982 12.6019C23.6973 13.901 24.4271 15.6629 24.4271 17.5001C24.4271 19.3373 23.6973 21.0992 22.3982 22.3983C21.0991 23.6973 19.3372 24.4272 17.5 24.4272C15.6628 24.4272 13.9009 23.6973 12.6018 22.3983C11.3027 21.0992 10.5729 19.3373 10.5729 17.5001Z" fill="white" fill-opacity="0.7"/>
</svg>
