<svg width="20" height="20" viewBox="0 0 20 20" fill="none" xmlns="http://www.w3.org/2000/svg">
<path d="M9.9 7.61675C10.9667 7.66675 11.2417 8.57508 11.2583 9.00008H12.75C12.6833 7.35008 11.5083 6.34175 9.875 6.34175C8.03333 6.34175 6.66667 7.50008 6.66667 10.1167C6.66667 11.7334 7.44167 13.6501 9.86667 13.6501C11.7167 13.6501 12.7083 12.2751 12.7333 11.1917H11.2417C11.2167 11.6834 10.8667 12.3417 9.88333 12.3917C8.79167 12.3584 8.33333 11.5084 8.33333 10.1167C8.33333 7.70841 9.4 7.63341 9.9 7.61675ZM10 1.66675C5.4 1.66675 1.66667 5.40008 1.66667 10.0001C1.66667 14.6001 5.4 18.3334 10 18.3334C14.6 18.3334 18.3333 14.6001 18.3333 10.0001C18.3333 5.40008 14.6 1.66675 10 1.66675ZM10 16.6667C6.325 16.6667 3.33333 13.6751 3.33333 10.0001C3.33333 6.32508 6.325 3.33341 10 3.33341C13.675 3.33341 16.6667 6.32508 16.6667 10.0001C16.6667 13.6751 13.675 16.6667 10 16.6667Z" fill="white" fill-opacity="0.7"/>
</svg>
