<svg width="40" height="40" viewBox="0 0 40 40" fill="none" xmlns="http://www.w3.org/2000/svg">
<path d="M30 21.6634H21.6666V29.9967C21.6666 30.4388 21.4911 30.8627 21.1785 31.1753C20.8659 31.4878 20.442 31.6634 20 31.6634C19.558 31.6634 19.134 31.4878 18.8215 31.1753C18.5089 30.8627 18.3333 30.4388 18.3333 29.9967V21.6634H9.99998C9.55795 21.6634 9.13403 21.4878 8.82147 21.1753C8.50891 20.8627 8.33331 20.4388 8.33331 19.9967C8.33331 19.5547 8.50891 19.1308 8.82147 18.8182C9.13403 18.5057 9.55795 18.3301 9.99998 18.3301H18.3333V9.99674C18.3333 9.55472 18.5089 9.13079 18.8215 8.81823C19.134 8.50567 19.558 8.33008 20 8.33008C20.442 8.33008 20.8659 8.50567 21.1785 8.81823C21.4911 9.13079 21.6666 9.55472 21.6666 9.99674V18.3301H30C30.442 18.3301 30.8659 18.5057 31.1785 18.8182C31.4911 19.1308 31.6666 19.5547 31.6666 19.9967C31.6666 20.4388 31.4911 20.8627 31.1785 21.1753C30.8659 21.4878 30.442 21.6634 30 21.6634Z" fill="white" fill-opacity="0.9"/>
<rect x="0.5" y="0.5" width="39" height="39" stroke="black"/>
</svg>
