<svg width="25" height="25" viewBox="0 0 25 25" fill="none" xmlns="http://www.w3.org/2000/svg">
<path d="M5.51318 6.24999C3.99717 7.94317 3.14839 10.1297 3.125 12.4023C3.06738 17.5952 7.30713 21.8652 12.5 21.875C17.6855 21.8848 21.875 17.6841 21.875 12.5C21.875 7.39549 17.7954 3.24169 12.7197 3.12499C12.6912 3.12407 12.6627 3.12891 12.636 3.13923C12.6094 3.14955 12.5851 3.16513 12.5646 3.18504C12.5441 3.20496 12.5278 3.22879 12.5167 3.25514C12.5056 3.28148 12.4999 3.30978 12.5 3.33837V7.42186" stroke="white" stroke-opacity="0.9" stroke-width="2" stroke-linecap="round" stroke-linejoin="round"/>
<path d="M11.3955 13.605L7.53808 8.0874C7.48471 8.01095 7.45996 7.91816 7.46815 7.82529C7.47634 7.73242 7.51696 7.64539 7.58288 7.57947C7.64881 7.51354 7.73583 7.47292 7.8287 7.46473C7.92157 7.45654 8.01437 7.4813 8.09081 7.53466L13.6084 11.3921C13.9468 11.6358 14.1757 12.003 14.2455 12.4142C14.3153 12.8254 14.2204 13.2475 13.9814 13.5893C13.7423 13.9311 13.3784 14.165 12.9682 14.2405C12.558 14.316 12.1346 14.227 11.7895 13.9927C11.637 13.8869 11.5037 13.7558 11.3955 13.605Z" fill="white" fill-opacity="0.9"/>
</svg>
