<svg width="35" height="35" viewBox="0 0 35 35" fill="none" xmlns="http://www.w3.org/2000/svg">
<path d="M32.7542 8.74992C31.6312 9.26034 30.4208 9.59575 29.1667 9.75617C30.45 8.98325 31.4417 7.75825 31.9083 6.28534C30.6979 7.0145 29.3563 7.52492 27.9417 7.81659C26.7896 6.56242 25.1708 5.83325 23.3333 5.83325C19.9063 5.83325 17.1063 8.63325 17.1063 12.0895C17.1063 12.5853 17.1646 13.0666 17.2667 13.5187C12.075 13.2562 7.45208 10.7624 4.375 6.98534C3.83542 7.90409 3.52917 8.98325 3.52917 10.1208C3.52917 12.2937 4.62292 14.2187 6.31458 15.3124C5.27917 15.3124 4.31667 15.0208 3.47083 14.5833V14.627C3.47083 17.6603 5.62917 20.1978 8.4875 20.7666C7.56981 21.0177 6.60639 21.0527 5.67292 20.8687C6.06901 22.1119 6.84474 23.1997 7.89107 23.9792C8.93739 24.7587 10.2017 25.1907 11.5063 25.2145C9.29488 26.9651 6.55375 27.9114 3.73333 27.8978C3.2375 27.8978 2.74167 27.8687 2.24583 27.8103C5.01667 29.5895 8.3125 30.6249 11.8417 30.6249C23.3333 30.6249 29.6479 21.0874 29.6479 12.8187C29.6479 12.5416 29.6479 12.2791 29.6333 12.002C30.8583 11.127 31.9083 10.0187 32.7542 8.74992Z" fill="white" fill-opacity="0.7"/>
</svg>
