<svg width="25" height="25" viewBox="0 0 25 25" fill="none" xmlns="http://www.w3.org/2000/svg">
<path d="M12.5 10.4166C14.8012 10.4166 16.6666 8.55117 16.6666 6.24998C16.6666 3.94879 14.8012 2.08331 12.5 2.08331C10.1988 2.08331 8.33331 3.94879 8.33331 6.24998C8.33331 8.55117 10.1988 10.4166 12.5 10.4166Z" stroke="white" stroke-width="1.5"/>
<path opacity="0.5" d="M18.75 9.37496C20.476 9.37496 21.875 8.20829 21.875 6.77079C21.875 5.33329 20.476 4.16663 18.75 4.16663M6.25 9.37496C4.52396 9.37496 3.125 8.20829 3.125 6.77079C3.125 5.33329 4.52396 4.16663 6.25 4.16663" stroke="white" stroke-width="1.5" stroke-linecap="round"/>
<path d="M12.5 21.875C15.9518 21.875 18.75 20.0095 18.75 17.7083C18.75 15.4071 15.9518 13.5416 12.5 13.5416C9.04822 13.5416 6.25 15.4071 6.25 17.7083C6.25 20.0095 9.04822 21.875 12.5 21.875Z" stroke="white" stroke-width="1.5"/>
<path opacity="0.5" d="M20.8333 19.7916C22.6604 19.3906 23.9583 18.376 23.9583 17.1875C23.9583 15.9989 22.6604 14.9844 20.8333 14.5833M4.16666 19.7916C2.33957 19.3906 1.04166 18.376 1.04166 17.1875C1.04166 15.9989 2.33957 14.9844 4.16666 14.5833" stroke="white" stroke-width="1.5" stroke-linecap="round"/>
</svg>
